<svg xmlns="http://www.w3.org/2000/svg" viewBox="0 0 120 120">
  <defs>
    <linearGradient id="g1" x1="0" x2="1" y1="0" y2="1">
      <stop offset="0%" stop-color="#6366f1" />
      <stop offset="100%" stop-color="#06b6d4" />
    </linearGradient>
  </defs>
  <rect width="120" height="120" rx="24" fill="url(#g1)" />
  <g transform="translate(20,20)" fill="#fff">
    <path d="M35 8a12 12 0 1 0 0 24 12 12 0 0 0 0-24zm-1.5 6.5a2 2 0 1 1 0 4 2 2 0 0 1 0-4zM59 44c-3 0-5 2-5 5v2H18c-3 0-5 2-5 5 0 3 2 5 5 5h29l16 11v-11h5c3 0 5-2 5-5 0-3-2-5-5-5H72v-2c0-6 6-14 6-20 0-9-8-15-15-15-6 0-11 4-12 10" />
    <path d="M58 28c0 9-7 15-13 15s-13-6-13-15" opacity="0.12" />
  </g>
</svg>
